<?xml version="1.0" encoding="UTF-8"?>
<svg xmlns="http://www.w3.org/2000/svg" version="1.1" viewBox="0 0 227 56">
  <defs>
    <style>
      .cls-1 {
        font-size: 7.9px;
      }

      .cls-1, .cls-2 {
        font-family: ArialNarrow-Bold, Arial;
        font-weight: 700;
      }

      .cls-1, .cls-3 {
        fill: #fff;
      }

      .cls-4 {
        fill: #414042;
      }

      .cls-4, .cls-5, .cls-6, .cls-3, .cls-7, .cls-8 {
        stroke-width: 0px;
      }

      .cls-5 {
        fill: #808285;
      }

      .cls-6, .cls-2 {
        fill: #0e2346;
      }

      .cls-9 {
        stroke: #fff;
      }

      .cls-9, .cls-10 {
        fill: none;
        stroke-miterlimit: 10;
      }

      .cls-10 {
        stroke: #0e2346;
        stroke-width: .8px;
      }

      .cls-2 {
        font-size: 7px;
      }

      .cls-11 {
        display: none;
      }

      .cls-7 {
        fill: #f8cb20;
      }

      .cls-8 {
        fill: #0a6a9e;
      }
    </style>
  </defs>
  <g id="Layer_1" data-name="Layer 1">
    <g>
      <g>
        <g>
          <g>
            <path class="cls-8" d="M54.3,38.2c-1.2,1.7-2.7,3.1-4.7,3.9-2.8,1.1-10.1-1.8-10.6-2.6-2.7-2-4.4-4.7-6.2-7.4-1.5-1.9-3.1-7.5-6.5-9-1.4-.8-3.5-.2-4.4,1.2.7-.5,1.5-.7,2.4-.7,1.1,0,2,.4,2.8,1.1,1,.9,1.6,2,2.2,3.2,3.5,8.3,9.9,13.7,13.1,15.2,3,1.2,6,1.5,8.9-.3,1.2-.7,1.9-1.3,3.7-3.2,0,0,.3-.5.4-.7,3.4-5.2,4-12.4,2.7-15.2-1.2-2.9-2.7-2.5-3.4-2.1.5-.2.8,0,1.2.3.6.5,1,1.1,1.2,1.8.8,2.5-.3,10-.7,11.1-.3.9-1.3,2.4-1.9,3.4Z"/>
            <path class="cls-6" d="M21,27.8c0-1.3,0-2.5.9-3.6.7-.5,1.5-.7,2.4-.7,1.1,0,2,.4,2.8,1.1,1,.9,1.6,2,2.2,3.2,10.1,19.2,19,16.6,21.9,14.9,1.2-.7,2.2-1.6,3.1-2.6,0,0,1-1.2,1-1.2-.1.1-.7,1.2-.8,1.4-.2.3-.3.6-.5.8-.6.9-1.2,1.7-2,2.5-.7.8-1.5,1.5-2.3,2.2-.8.7-1.7,1.3-2.7,1.8-3.8,2.2-7.7,2.1-11.6.1-1.9-.9-3.5-2.1-5.1-3.5-.1-.1-.5-.4-.6-.5-.9-.9-1.8-1.8-2.6-2.9-1.1-1.2-2-2.6-2.8-4-.2-.1-3.1-6-3.3-9Z"/>
            <path class="cls-7" d="M38.6,39.2c.4.3,1,.7,1.4.8,1.6.8,3.2.8,4.9,0,1.4-.6,2.4-1.7,3.3-3,.7-1.1,1.2-2.4,1.6-3.7.4-2,.9-4,1.3-5.9.2-1,.5-1.9,1-2.8.6-1.2,1.3-2.4,2.5-3,.5-.2.8,0,1.2.3.6.5,1,1.1,1.2,1.8.8,2.5.6,5,.2,7.5-.2,1.2-.5,2.4-.9,3.6-.5,1.3-1.4,2.7-1.9,3.4-1.2,1.7-2.7,3.1-4.7,3.9-2.8,1.1-6.7.9-10.9-2.9Z"/>
          </g>
          <g>
            <path class="cls-8" d="M35.3,16c-1.7-1.3-3.5-2.2-5.6-2.4-3-.2-9.2,4.6-9.4,5.5-2,2.7-2.9,5.8-3.8,8.9-.9,2.2-.8,8.1-3.6,10.5-1.1,1.2-3.3,1.2-4.6,0,.8.2,1.6.2,2.4,0,1.1-.3,1.8-1,2.3-1.9.7-1.1,1-2.4,1.2-3.7,1-9,5.6-15.9,8.2-18.2,2.5-2,5.3-3.1,8.6-2.3,1.3.3,2.2.7,4.5,2,0,0,.4.4.6.5,4.7,4,7.3,10.7,7,13.8-.4,3.1-1.9,3.1-2.7,3,.5,0,.8-.3,1-.6.4-.6.6-1.3.6-2.1,0-2.6-3.1-9.5-3.9-10.4-.6-.7-1.9-2-2.8-2.7Z"/>
            <path class="cls-6" d="M6.4,35.4c.3,1.2.8,2.4,1.9,3.2.8.2,1.6.2,2.4,0,1.1-.3,1.8-1,2.3-1.9.7-1.1,1-2.4,1.2-3.7,4.2-21.3,13.5-21.3,16.8-20.5,1.3.3,2.6.9,3.7,1.7.1,0,1.3.9,1.3.9-.1-.1-1-1-1.1-1.1-.2-.2-.5-.4-.7-.6-.8-.7-1.7-1.3-2.6-1.9-.9-.6-1.9-1-2.8-1.4-1-.4-2-.7-3.1-1-4.3-1-8,.2-11.1,3.2-1.6,1.4-2.8,3-3.9,4.8,0,.2-.3.6-.4.7-.7,1.1-1.2,2.3-1.7,3.5-.7,1.5-1.2,3-1.6,4.6-.2.2-1.2,6.6-.6,9.6Z"/>
            <path class="cls-7" d="M20.1,19.5c.3-.4.8-.9,1.1-1.2,1.3-1.2,2.9-1.7,4.7-1.5,1.5.2,2.8,1,4,2,1,.9,1.8,2,2.6,3.1,1,1.8,2,3.6,2.9,5.3.5.9,1,1.7,1.7,2.4.9,1,1.9,1.9,3.3,2.2.5,0,.8-.3,1-.6.4-.6.6-1.3.6-2.1,0-2.6-.9-5-2-7.3-.5-1.1-1.1-2.2-1.9-3.2-.9-1.1-2.1-2.2-2.8-2.7-1.7-1.3-3.5-2.2-5.6-2.4-3-.2-6.7,1-9.7,5.9Z"/>
          </g>
        </g>
        <g>
          <path class="cls-4" d="M67.8,41.6c.5,0,.8-.2,1.1-.5l.6.5c-.4.5-.9.8-1.7.8-1.2,0-2.2-.9-2.2-2.2s.9-2.2,2-2.2,2,1,2,2.3,0,.2,0,.3h-3.1c.1.7.6,1.1,1.2,1.1ZM68.8,39.9c0-.6-.4-1.1-1.1-1.1s-1,.5-1.1,1.1h2.2Z"/>
          <path class="cls-4" d="M76.2,42.2h-1l-1-1.5-1,1.5h-1l1.5-2.1-1.5-2.1h1l1,1.4,1-1.4h1l-1.5,2,1.5,2.2Z"/>
          <path class="cls-4" d="M81.4,42.3c-.7,0-1.1-.3-1.4-.7v1.9h-1v-5.5h1v.7c.3-.4.7-.8,1.4-.8,1,0,2,.8,2,2.2s-1,2.2-2,2.2ZM81.2,38.8c-.7,0-1.2.5-1.2,1.3s.6,1.4,1.2,1.4,1.2-.5,1.2-1.4-.5-1.3-1.2-1.3Z"/>
          <path class="cls-4" d="M86.4,42.2v-5.8h1v5.8h-1Z"/>
          <path class="cls-4" d="M92.6,42.3c-1.3,0-2.2-1-2.2-2.2s1-2.2,2.2-2.2,2.2,1,2.2,2.2-1,2.2-2.2,2.2ZM92.6,38.8c-.8,0-1.3.6-1.3,1.3s.5,1.4,1.3,1.4,1.3-.6,1.3-1.3-.5-1.4-1.3-1.4Z"/>
          <path class="cls-4" d="M98.8,42.2h-1v-4.2h1v.9c.3-.6.7-1.1,1.5-1v1h0c-.8,0-1.4.5-1.4,1.7v1.6Z"/>
          <path class="cls-4" d="M104.9,41.6c.5,0,.8-.2,1.1-.5l.6.5c-.4.5-.9.8-1.7.8-1.2,0-2.2-.9-2.2-2.2s.9-2.2,2-2.2,2,1,2,2.3,0,.2,0,.3h-3.1c.1.7.6,1.1,1.2,1.1ZM105.9,39.9c0-.6-.4-1.1-1.1-1.1s-1,.5-1.1,1.1h2.2Z"/>
          <path class="cls-5" d="M114.5,43.3v-7.4h.8v7.4h-.8Z"/>
          <path class="cls-4" d="M126,38.1h1v4.2h-1v-.7c-.3.4-.7.7-1.3.7-.9,0-1.5-.6-1.5-1.6v-2.7h1v2.4c0,.7.3,1,.9,1s.9-.4.9-1v-2.4Z"/>
          <path class="cls-4" d="M132.5,42.3c-.7,0-1.1-.3-1.4-.7v1.9h-1v-5.5h1v.7c.3-.4.7-.8,1.4-.8,1,0,2,.8,2,2.2s-1,2.2-2,2.2ZM132.3,38.8c-.7,0-1.2.5-1.2,1.3s.6,1.4,1.2,1.4,1.2-.5,1.2-1.4-.5-1.3-1.2-1.3Z"/>
          <path class="cls-4" d="M139.3,43.5c-.7,0-1.3-.2-1.9-.5l.4-.7c.4.3.9.4,1.5.4.9,0,1.3-.4,1.3-1.3v-.3c-.3.5-.8.8-1.5.8-1,0-1.9-.7-1.9-2s.9-2,1.9-2,1.1.3,1.5.7v-.6h1v3.3c0,1.5-.8,2.1-2.3,2.1ZM139.4,38.8c-.7,0-1.2.5-1.2,1.2s.5,1.2,1.2,1.2,1.2-.5,1.2-1.2-.6-1.2-1.2-1.2Z"/>
          <path class="cls-4" d="M145.7,42.2h-1v-4.2h1v.9c.3-.6.7-1.1,1.5-1v1h0c-.8,0-1.4.5-1.4,1.7v1.6Z"/>
          <path class="cls-4" d="M152.4,42.2v-.5c-.3.3-.7.6-1.4.6s-1.5-.5-1.5-1.3h0c0-.9.7-1.4,1.7-1.4s.8,0,1.2.2h0c0-.7-.4-1-1-1s-.8.1-1.2.3l-.3-.8c.5-.2.9-.3,1.6-.3,1.2,0,1.8.7,1.8,1.8v2.5h-1ZM152.4,40.5c-.2,0-.6-.2-1-.2-.6,0-1,.2-1,.7h0c0,.4.4.6.8.6s1.1-.4,1.1-.9v-.3Z"/>
          <path class="cls-4" d="M159.7,42.2v-.7c-.3.4-.7.8-1.4.8-1,0-1.9-.8-1.9-2.2s.9-2.2,1.9-2.2,1.1.3,1.4.7v-2.3h1v5.8h-1ZM158.5,38.8c-.7,0-1.2.5-1.2,1.3s.6,1.4,1.2,1.4,1.2-.5,1.2-1.4-.6-1.3-1.2-1.3Z"/>
          <path class="cls-4" d="M165.8,41.6c.5,0,.8-.2,1.1-.5l.6.5c-.4.5-.9.8-1.7.8-1.2,0-2.2-.9-2.2-2.2s.9-2.2,2-2.2,2,1,2,2.3,0,.2,0,.3h-3.1c.1.7.6,1.1,1.2,1.1ZM166.7,39.9c0-.6-.4-1.1-1.1-1.1s-1,.5-1.1,1.1h2.2Z"/>
          <path class="cls-5" d="M175.3,43.3v-7.4h.8v7.4h-.8Z"/>
          <path class="cls-4" d="M185.9,43.5c-.7,0-1.3-.2-1.9-.5l.4-.7c.4.3.9.4,1.5.4.9,0,1.3-.4,1.3-1.3v-.3c-.3.5-.8.8-1.5.8-1,0-1.9-.7-1.9-2s.9-2,1.9-2,1.1.3,1.5.7v-.6h1v3.3c0,1.5-.8,2.1-2.3,2.1ZM186,38.8c-.7,0-1.2.5-1.2,1.2s.5,1.2,1.2,1.2,1.2-.5,1.2-1.2-.6-1.2-1.2-1.2Z"/>
          <path class="cls-4" d="M192.3,42.2h-1v-4.2h1v.9c.3-.6.7-1.1,1.5-1v1h0c-.8,0-1.4.5-1.4,1.7v1.6Z"/>
          <path class="cls-4" d="M198.5,42.3c-1.3,0-2.2-1-2.2-2.2s1-2.2,2.2-2.2,2.2,1,2.2,2.2-1,2.2-2.2,2.2ZM198.5,38.8c-.8,0-1.3.6-1.3,1.3s.5,1.4,1.3,1.4,1.3-.6,1.3-1.3-.5-1.4-1.3-1.4Z"/>
          <path class="cls-4" d="M207.7,40.9l.9-2.9h1l-1.4,4.2h-.9l-.9-2.9-.9,2.9h-.9l-1.4-4.2h1l.8,2.9.9-2.9h.8l.9,2.9Z"/>
          <path class="cls-8" d="M73,25.9c0,.9-.3,1.7-1,2.2-.7.6-1.6.8-2.8.8s-1.6-.2-2.2-.5c-.6-.4-1.1-.9-1.3-1.5l1.5-.9c.2.5.5.8.9,1.1.4.2.8.4,1.4.4s1.1-.1,1.4-.4c.4-.2.5-.6.5-1s-.2-.8-.5-1.1c-.3-.2-.9-.5-1.9-.9-.9-.3-1.6-.8-2-1.3-.5-.5-.7-1.1-.7-1.8s.3-1.6.9-2.1c.6-.5,1.4-.8,2.4-.8s1.4.2,1.9.5c.5.3.9.8,1.2,1.4l-1.4.9c-.2-.4-.4-.7-.7-.9-.3-.2-.6-.3-1.1-.3s-.9.1-1.1.3c-.3.2-.4.5-.4.9s.1.7.4,1c.3.3.8.5,1.6.8,1.1.4,1.9.8,2.4,1.3.5.5.7,1.1.7,1.9Z"/>
          <path class="cls-8" d="M96.8,28.6h-1.7v-6.1c0-1-.2-1.7-.5-2.1-.3-.5-.8-.7-1.5-.7s-1.4.3-1.7.9c-.3.6-.5,1.6-.5,3v5h-1.7v-6.1c0-1-.1-1.7-.4-2.2-.3-.4-.8-.7-1.4-.7s-1.4.3-1.8,1c-.4.7-.6,1.7-.6,3v4.9h-1.7v-10.1h1.7v1.3c.3-.6.6-1,1.1-1.2.5-.3,1.1-.4,1.8-.4s1.2.2,1.7.5c.5.3.8.7,1,1.3.3-.6.7-1,1.2-1.3.5-.3,1.2-.5,1.9-.5s1.7.3,2.3,1c.5.7.8,1.6.8,2.8v6.6Z"/>
          <path class="cls-8" d="M111.1,23.5c0,1.6-.5,2.9-1.4,3.9-.9,1-2.1,1.5-3.5,1.5s-1.6-.2-2.2-.5-1.1-.8-1.5-1.5v7.3h-1.7v-15.7h1.7v1.5c.4-.6.9-1,1.5-1.4.6-.3,1.3-.5,2.1-.5,1.4,0,2.6.5,3.5,1.5.9,1,1.4,2.3,1.4,3.8ZM109.4,23.5c0-1.1-.3-2-.9-2.7-.6-.7-1.4-1-2.5-1s-1.8.3-2.4,1c-.6.6-.9,1.5-.9,2.6s.3,2,1,2.8c.7.7,1.5,1.1,2.5,1.1s1.8-.3,2.4-1c.6-.7.9-1.6.9-2.7Z"/>
          <path class="cls-8" d="M116.2,28.6h-1.7v-14.2h1.7v14.2Z"/>
          <path class="cls-6" d="M134.6,14.4v5.6c-.4-.6-.8-1-1.5-1.4-.6-.3-1.3-.5-2.1-.5-1.4,0-2.6.5-3.5,1.5-.9,1-1.4,2.3-1.4,3.8s.5,2.9,1.4,3.9c.9,1,2.1,1.5,3.5,1.5s1.6-.2,2.2-.5c.6-.3,1.1-.8,1.5-1.5v1.7h1.7v-14.2h-1.7ZM133.6,26.2c-.7.7-1.5,1.1-2.5,1.1s-1.8-.3-2.4-1c-.6-.7-.9-1.6-.9-2.7s.3-2,.9-2.7c.6-.7,1.5-1,2.5-1s1.8.3,2.4,1c.6.6.9,1.5.9,2.6s-.3,2-1,2.8Z"/>
          <path class="cls-6" d="M153.5,25.9c0,.9-.3,1.7-1,2.2-.7.6-1.6.8-2.8.8s-1.6-.2-2.2-.5-1.1-.9-1.3-1.5l1.5-.9c.2.5.5.8.9,1.1.4.2.8.4,1.4.4s1.1-.1,1.4-.4c.4-.2.5-.6.5-1s-.2-.8-.5-1.1c-.3-.2-.9-.5-1.9-.9-.9-.3-1.6-.8-2-1.3-.5-.5-.7-1.1-.7-1.8s.3-1.6.9-2.1c.6-.5,1.4-.8,2.4-.8s1.4.2,1.9.5c.5.3.9.8,1.2,1.4l-1.4.9c-.2-.4-.4-.7-.7-.9-.3-.2-.6-.3-1.1-.3s-.9.1-1.1.3c-.3.2-.4.5-.4.9s.1.7.4,1c.3.3.8.5,1.6.8,1.1.4,1.9.8,2.4,1.3.5.5.7,1.1.7,1.9Z"/>
          <path class="cls-6" d="M160.3,20h-1.6v8.6h-1.7v-8.6h-1.2v-1.6h1.2v-4.1h1.7v4.1h1.6v1.6Z"/>
          <path class="cls-6" d="M172.4,28.6h-1.7v-1.7c-.3.6-.8,1.1-1.5,1.5-.6.3-1.4.5-2.2.5-1.4,0-2.6-.5-3.5-1.5-.9-1-1.4-2.3-1.4-3.9s.5-2.8,1.4-3.8c.9-1,2.1-1.5,3.5-1.5s1.5.2,2.1.5c.6.3,1.1.8,1.5,1.4v-1.5h1.7v10.1ZM170.7,23.4c0-1.1-.3-2-.9-2.6-.6-.6-1.4-1-2.4-1s-1.8.3-2.5,1c-.6.7-.9,1.6-.9,2.7s.3,2,.9,2.7c.6.7,1.4,1,2.4,1s1.8-.4,2.5-1.1c.7-.7,1-1.6,1-2.8Z"/>
          <path class="cls-6" d="M185,28.6h-1.7v-6c0-1-.2-1.7-.5-2.2-.3-.5-.9-.7-1.7-.7s-1.5.3-2,1c-.5.7-.7,1.7-.7,3v4.9h-1.7v-10.1h1.7v1.5c.3-.6.7-1,1.3-1.3.5-.3,1.2-.4,2-.4s1.8.3,2.4,1c.6.7.9,1.6.9,2.9v6.5Z"/>
          <path class="cls-6" d="M197,28.2c-.5.2-1,.4-1.5.6-.5.1-1.1.2-1.7.2-1.6,0-2.9-.5-4-1.5-1-1-1.5-2.3-1.5-3.9s.5-2.9,1.6-3.9,2.4-1.5,4.1-1.5,1.1,0,1.6.2c.5.1.9.3,1.3.5v1.8c-.4-.3-.9-.5-1.4-.7-.5-.2-1-.2-1.5-.2-1.2,0-2.2.3-2.9,1-.7.7-1.1,1.6-1.1,2.8s.4,2,1.1,2.6c.7.7,1.7,1,2.9,1s1.1,0,1.6-.2c.5-.2,1-.4,1.3-.7v1.8Z"/>
          <path class="cls-6" d="M209.5,23.8h-8.1c0,1.1.4,1.9,1,2.5.6.6,1.4.9,2.3.9s1.4-.1,1.9-.4c.5-.3.9-.7,1.2-1.3l1.4.8c-.5.9-1.1,1.5-1.9,2-.8.4-1.7.7-2.7.7-1.5,0-2.7-.5-3.6-1.5-.9-1-1.4-2.3-1.4-3.9s.5-2.8,1.4-3.8c1-1,2.1-1.5,3.5-1.5s2.6.5,3.5,1.4c.9.9,1.4,2.1,1.4,3.6v.6ZM207.8,22.6c0-.9-.4-1.5-1-2-.6-.5-1.3-.7-2.2-.7s-1.6.2-2.2.7c-.6.5-.9,1.2-1,2h6.4Z"/>
          <path class="cls-8" d="M78.7,19.2c0,.2,0,.4-.3.6-.2.2-.4.3-.6.3s-.4,0-.6-.3c-.2-.2-.3-.4-.3-.6s0-.4.3-.6c.2-.2.4-.3.6-.3s.4,0,.6.3c.2.2.3.4.3.6Z"/>
          <path class="cls-8" d="M122.6,19.2c0,.2,0,.4-.3.6-.2.2-.4.3-.6.3s-.4,0-.6-.3c-.2-.2-.3-.4-.3-.6s0-.4.3-.6c.2-.2.4-.3.6-.3s.4,0,.6.3c.2.2.3.4.3.6Z"/>
          <path class="cls-6" d="M142.7,19.2c0,.2,0,.4-.3.6-.2.2-.4.3-.6.3s-.4,0-.6-.3c-.2-.2-.3-.4-.3-.6s0-.4.3-.6c.2-.2.4-.3.6-.3s.4,0,.6.3c.2.2.3.4.3.6Z"/>
          <path class="cls-8" d="M77.8,21.4c-.3,0-.6-.1-.9-.3v7.5h1.7v-7.5c-.3.2-.5.3-.9.3Z"/>
          <path class="cls-8" d="M121.7,21.4c-.3,0-.6-.1-.9-.3v7.5h1.7v-7.5c-.3.2-.5.3-.9.3Z"/>
          <path class="cls-6" d="M141.8,21.4c-.3,0-.6-.1-.9-.3v7.5h1.7v-7.5c-.3.2-.5.3-.9.3Z"/>
        </g>
      </g>
      <g>
        <text class="cls-2" transform="translate(215.8 19.5)"><tspan x="0" y="0">R</tspan></text>
        <circle class="cls-10" cx="218" cy="16.9" r="4.5"/>
      </g>
    </g>
  </g>
  <g id="Layer_2" data-name="Layer 2" class="cls-11">
    <g>
      <g>
        <g>
          <path class="cls-8" d="M54.1,37.5c-1.2,1.6-2.7,3-4.6,3.7-2.7,1-9.8-1.7-10.3-2.6-2.6-1.9-4.3-4.6-6-7.2-1.5-1.8-3-7.3-6.3-8.7-1.4-.8-3.4-.2-4.3,1.2.7-.4,1.4-.6,2.3-.6,1.1,0,1.9.4,2.7,1.1.9.9,1.6,2,2.1,3.1,3.4,8,9.6,13.3,12.7,14.7,2.9,1.2,5.8,1.4,8.6-.2,1.1-.7,1.9-1.2,3.6-3.1,0,0,.2-.5.4-.6,3.2-5,3.8-12,2.7-14.8-1.2-2.8-2.6-2.4-3.3-2,.4-.1.8,0,1.1.3.6.5.9,1.1,1.2,1.8.8,2.4-.3,9.6-.7,10.8-.3.8-1.2,2.4-1.9,3.2Z"/>
          <path class="cls-6" d="M22,27.4c0-1.2,0-2.5.8-3.5.7-.4,1.4-.6,2.3-.6,1.1,0,1.9.4,2.7,1.1.9.9,1.6,2,2.1,3.1,9.8,18.6,18.4,16.1,21.3,14.4,1.1-.7,2.1-1.5,3-2.6,0,0,1-1.2,1-1.2,0,.1-.7,1.2-.7,1.3-.2.3-.3.5-.5.8-.6.9-1.2,1.7-1.9,2.5-.7.8-1.4,1.5-2.2,2.1-.8.7-1.7,1.2-2.6,1.8-3.7,2.1-7.4,2-11.2.1-1.8-.8-3.4-2.1-4.9-3.4-.1-.1-.5-.4-.6-.5-.9-.9-1.7-1.8-2.5-2.8-1.1-1.2-2-2.5-2.7-3.9-.2-.1-3-5.8-3.2-8.8Z"/>
          <path class="cls-7" d="M39,38.4c.4.3,1,.6,1.3.8,1.6.8,3.1.8,4.7,0,1.4-.6,2.4-1.7,3.2-2.9.7-1.1,1.2-2.3,1.6-3.6.4-1.9.8-3.8,1.3-5.8.2-.9.5-1.9.9-2.7.6-1.2,1.2-2.3,2.4-2.9.4-.1.8,0,1.1.3.6.5.9,1.1,1.2,1.8.8,2.4.6,4.9.2,7.3-.2,1.2-.4,2.3-.9,3.5-.5,1.3-1.4,2.6-1.9,3.2-1.2,1.6-2.7,3-4.6,3.7-2.7,1-6.5.9-10.6-2.8Z"/>
        </g>
        <g>
          <path class="cls-8" d="M35.8,15.9c-1.6-1.2-3.4-2.1-5.4-2.3-2.9-.2-8.9,4.5-9.1,5.4-1.9,2.6-2.8,5.6-3.7,8.6-.9,2.2-.8,7.8-3.5,10.2-1.1,1.1-3.2,1.2-4.4,0,.8.2,1.6.2,2.4,0,1-.3,1.7-.9,2.3-1.8.6-1.1.9-2.3,1.2-3.6,1-8.7,5.5-15.4,8-17.7,2.4-2,5.1-3,8.3-2.2,1.3.3,2.2.7,4.3,1.9,0,0,.4.4.6.5,4.5,3.9,7.1,10.4,6.7,13.4-.4,3-1.9,3-2.6,2.9.5,0,.7-.3,1-.6.4-.6.6-1.3.6-2,0-2.5-3-9.2-3.7-10.1-.5-.7-1.9-1.9-2.7-2.6Z"/>
          <path class="cls-6" d="M7.8,34.7c.3,1.2.7,2.4,1.8,3.1.8.2,1.6.2,2.4,0,1-.3,1.7-.9,2.3-1.8.6-1.1.9-2.3,1.2-3.6,4.1-20.6,13.1-20.7,16.3-19.9,1.3.3,2.5.9,3.6,1.6.1,0,1.3.8,1.3.8-.1-.1-1-.9-1.1-1.1-.2-.2-.5-.4-.7-.6-.8-.7-1.6-1.3-2.5-1.8-.9-.5-1.8-1-2.8-1.4-1-.4-2-.7-3-1-4.2-1-7.7.2-10.8,3.1-1.5,1.3-2.7,2.9-3.8,4.6,0,.1-.3.5-.4.7-.6,1.1-1.2,2.2-1.6,3.4-.7,1.4-1.2,2.9-1.5,4.5-.2.2-1.2,6.4-.6,9.3Z"/>
          <path class="cls-7" d="M21,19.3c.3-.4.8-.9,1-1.2,1.3-1.2,2.8-1.7,4.5-1.4,1.5.2,2.7.9,3.9,1.9,1,.9,1.8,1.9,2.5,3,1,1.7,1.9,3.4,2.9,5.2.5.8,1,1.7,1.7,2.4.9,1,1.8,1.9,3.2,2.1.5,0,.7-.3,1-.6.4-.6.6-1.3.6-2,0-2.5-.8-4.8-1.9-7.1-.5-1.1-1.1-2.1-1.8-3.1-.8-1.1-2.1-2.1-2.7-2.6-1.6-1.2-3.4-2.1-5.4-2.3-2.9-.2-6.4,1-9.4,5.7Z"/>
        </g>
      </g>
      <g>
        <path class="cls-3" d="M67.3,40.7c.5,0,.8-.2,1.1-.5l.5.5c-.4.5-.9.8-1.7.8-1.2,0-2.1-.9-2.1-2.1s.8-2.1,2-2.1,1.9,1,1.9,2.2,0,.2,0,.3h-3c.1.7.6,1,1.2,1ZM68.2,39.1c0-.6-.4-1.1-1-1.1s-1,.4-1.1,1.1h2.1Z"/>
        <path class="cls-3" d="M75.4,41.4h-1l-1-1.4-1,1.4h-1l1.5-2.1-1.4-2h1l.9,1.3.9-1.3h1l-1.4,2,1.5,2.1Z"/>
        <path class="cls-3" d="M80.5,41.5c-.7,0-1.1-.3-1.4-.7v1.9h-.9v-5.3h.9v.7c.3-.4.7-.8,1.4-.8,1,0,1.9.8,1.9,2.1s-.9,2.1-1.9,2.1ZM80.3,38c-.6,0-1.2.5-1.2,1.3s.6,1.3,1.2,1.3,1.2-.5,1.2-1.3-.5-1.3-1.2-1.3Z"/>
        <path class="cls-3" d="M85.3,41.4v-5.6h.9v5.6h-.9Z"/>
        <path class="cls-3" d="M91.3,41.5c-1.2,0-2.2-.9-2.2-2.1s.9-2.1,2.2-2.1,2.2.9,2.2,2.1-.9,2.1-2.2,2.1ZM91.3,38.1c-.7,0-1.2.6-1.2,1.3s.5,1.3,1.2,1.3,1.2-.6,1.2-1.3-.5-1.3-1.2-1.3Z"/>
        <path class="cls-3" d="M97.3,41.4h-.9v-4.1h.9v.9c.3-.6.7-1,1.4-1v1h0c-.8,0-1.4.5-1.4,1.6v1.5Z"/>
        <path class="cls-3" d="M103.2,40.7c.5,0,.8-.2,1.1-.5l.5.5c-.4.5-.9.8-1.7.8-1.2,0-2.1-.9-2.1-2.1s.8-2.1,2-2.1,1.9,1,1.9,2.2,0,.2,0,.3h-3c.1.7.6,1,1.2,1ZM104.2,39.1c0-.6-.4-1.1-1-1.1s-1,.4-1.1,1.1h2.1Z"/>
        <path class="cls-3" d="M112.5,42.4v-7.1h.7v7.1h-.7Z"/>
        <path class="cls-3" d="M123.6,37.3h.9v4.1h-.9v-.6c-.3.4-.6.7-1.3.7-.9,0-1.4-.6-1.4-1.6v-2.6h.9v2.3c0,.6.3,1,.9,1s.9-.4.9-1v-2.3Z"/>
        <path class="cls-3" d="M129.9,41.5c-.7,0-1.1-.3-1.4-.7v1.9h-.9v-5.3h.9v.7c.3-.4.7-.8,1.4-.8,1,0,1.9.8,1.9,2.1s-.9,2.1-1.9,2.1ZM129.7,38c-.6,0-1.2.5-1.2,1.3s.6,1.3,1.2,1.3,1.2-.5,1.2-1.3-.5-1.3-1.2-1.3Z"/>
        <path class="cls-3" d="M136.5,42.6c-.7,0-1.3-.2-1.8-.5l.3-.7c.4.3.9.4,1.4.4.8,0,1.3-.4,1.3-1.2v-.3c-.3.4-.8.7-1.4.7-1,0-1.8-.7-1.8-1.9s.9-1.9,1.8-1.9,1.1.3,1.4.7v-.6h.9v3.2c0,1.4-.8,2.1-2.2,2.1ZM136.6,38c-.6,0-1.2.4-1.2,1.1s.5,1.1,1.2,1.1,1.2-.5,1.2-1.1-.5-1.1-1.2-1.1Z"/>
        <path class="cls-3" d="M142.8,41.4h-.9v-4.1h.9v.9c.3-.6.7-1,1.4-1v1h0c-.8,0-1.4.5-1.4,1.6v1.5Z"/>
        <path class="cls-3" d="M149.2,41.4v-.5c-.3.3-.7.6-1.3.6s-1.4-.4-1.4-1.3h0c0-.9.7-1.3,1.6-1.3s.8,0,1.1.2h0c0-.7-.4-1-1-1s-.8,0-1.2.3l-.3-.7c.4-.2.9-.3,1.5-.3,1.2,0,1.8.6,1.8,1.7v2.4h-.9ZM149.3,39.7c-.2,0-.6-.2-.9-.2-.6,0-.9.2-.9.7h0c0,.4.3.6.8.6s1.1-.3,1.1-.9v-.3Z"/>
        <path class="cls-3" d="M156.3,41.4v-.7c-.3.4-.7.8-1.4.8-1,0-1.9-.8-1.9-2.1s.9-2.1,1.9-2.1,1.1.3,1.4.7v-2.2h.9v5.6h-.9ZM155.1,38c-.6,0-1.2.5-1.2,1.3s.5,1.3,1.2,1.3,1.2-.5,1.2-1.3-.6-1.3-1.2-1.3Z"/>
        <path class="cls-3" d="M162.2,40.7c.5,0,.8-.2,1.1-.5l.5.5c-.4.5-.9.8-1.7.8-1.2,0-2.1-.9-2.1-2.1s.8-2.1,2-2.1,1.9,1,1.9,2.2,0,.2,0,.3h-3c.1.7.6,1,1.2,1ZM163.1,39.1c0-.6-.4-1.1-1-1.1s-1,.4-1.1,1.1h2.1Z"/>
        <path class="cls-3" d="M171.4,42.4v-7.1h.7v7.1h-.7Z"/>
        <path class="cls-3" d="M181.7,42.6c-.7,0-1.3-.2-1.8-.5l.3-.7c.4.3.9.4,1.4.4.8,0,1.3-.4,1.3-1.2v-.3c-.3.4-.8.7-1.4.7-1,0-1.8-.7-1.8-1.9s.9-1.9,1.8-1.9,1.1.3,1.4.7v-.6h.9v3.2c0,1.4-.8,2.1-2.2,2.1ZM181.7,38c-.6,0-1.2.4-1.2,1.1s.5,1.1,1.2,1.1,1.2-.5,1.2-1.1-.5-1.1-1.2-1.1Z"/>
        <path class="cls-3" d="M187.9,41.4h-.9v-4.1h.9v.9c.3-.6.7-1,1.4-1v1h0c-.8,0-1.4.5-1.4,1.6v1.5Z"/>
        <path class="cls-3" d="M193.9,41.5c-1.2,0-2.2-.9-2.2-2.1s.9-2.1,2.2-2.1,2.2.9,2.2,2.1-.9,2.1-2.2,2.1ZM193.9,38.1c-.7,0-1.2.6-1.2,1.3s.5,1.3,1.2,1.3,1.2-.6,1.2-1.3-.5-1.3-1.2-1.3Z"/>
        <path class="cls-3" d="M202.8,40.1l.8-2.8h.9l-1.3,4.1h-.8l-.9-2.8-.9,2.8h-.8l-1.3-4.1h1l.8,2.8.9-2.8h.8l.9,2.8Z"/>
        <path class="cls-3" d="M72.3,25.5c0,.9-.3,1.6-1,2.2-.7.5-1.5.8-2.7.8s-1.6-.2-2.2-.5c-.6-.3-1-.8-1.3-1.5l1.4-.9c.2.5.5.8.8,1.1.4.2.8.3,1.3.3s1-.1,1.4-.4c.3-.2.5-.6.5-1s-.2-.8-.5-1c-.3-.2-.9-.5-1.8-.8-.9-.3-1.5-.7-2-1.2-.4-.5-.7-1.1-.7-1.7s.3-1.5.8-2c.6-.5,1.4-.7,2.4-.7s1.4.2,1.8.5c.5.3.9.8,1.2,1.4l-1.4.8c-.2-.4-.4-.7-.7-.9-.3-.2-.6-.3-1-.3s-.8.1-1.1.3c-.3.2-.4.5-.4.9s.1.7.4.9c.3.3.8.5,1.5.7,1.1.3,1.9.8,2.3,1.2.5.5.7,1.1.7,1.8Z"/>
        <path class="cls-3" d="M95.4,28.2h-1.7v-5.9c0-.9-.2-1.6-.5-2.1-.3-.4-.8-.7-1.4-.7s-1.3.3-1.6.9c-.3.6-.5,1.5-.5,2.9v4.8h-1.7v-5.9c0-1-.1-1.7-.4-2.1-.3-.4-.7-.6-1.4-.6s-1.4.3-1.7.9c-.4.6-.6,1.6-.6,2.9v4.7h-1.7v-9.8h1.7v1.3c.3-.5.6-.9,1.1-1.2.5-.3,1-.4,1.7-.4s1.2.1,1.6.4c.5.3.8.7,1,1.3.3-.6.6-1,1.2-1.3.5-.3,1.1-.4,1.8-.4s1.7.3,2.2.9c.5.6.8,1.5.8,2.7v6.4Z"/>
        <path class="cls-3" d="M109.2,23.2c0,1.5-.4,2.8-1.3,3.8-.9,1-2,1.5-3.4,1.5s-1.5-.2-2.1-.5-1.1-.8-1.4-1.4v7.1h-1.7v-15.2h1.7v1.5c.4-.6.8-1,1.4-1.3.6-.3,1.3-.5,2.1-.5,1.4,0,2.5.5,3.4,1.4.9,1,1.3,2.2,1.3,3.7ZM107.5,23.2c0-1.1-.3-1.9-.9-2.6-.6-.6-1.4-1-2.4-1s-1.8.3-2.4.9c-.6.6-.9,1.5-.9,2.5s.3,2,.9,2.7c.6.7,1.4,1,2.4,1s1.7-.3,2.3-1c.6-.7.9-1.6.9-2.6Z"/>
        <path class="cls-3" d="M114.2,28.2h-1.7v-13.8h1.7v13.8Z"/>
        <path class="cls-3" d="M132,14.4v5.4c-.3-.6-.8-1-1.4-1.3-.6-.3-1.3-.5-2.1-.5-1.4,0-2.5.5-3.4,1.4-.9,1-1.3,2.2-1.3,3.7s.4,2.8,1.3,3.8c.9,1,2,1.5,3.4,1.5s1.5-.2,2.1-.5c.6-.3,1.1-.8,1.4-1.4v1.6h1.7v-13.8h-1.7ZM131,25.8c-.6.7-1.4,1-2.4,1s-1.7-.3-2.3-1c-.6-.7-.9-1.6-.9-2.6s.3-1.9.9-2.6c.6-.6,1.4-1,2.4-1s1.8.3,2.4.9c.6.6.9,1.5.9,2.5s-.3,2-.9,2.7Z"/>
        <path class="cls-3" d="M150.3,25.5c0,.9-.3,1.6-1,2.2-.7.5-1.5.8-2.7.8s-1.6-.2-2.2-.5-1-.8-1.3-1.5l1.4-.9c.2.5.5.8.8,1.1.4.2.8.3,1.3.3s1-.1,1.4-.4c.3-.2.5-.6.5-1s-.2-.8-.5-1c-.3-.2-.9-.5-1.8-.8-.9-.3-1.5-.7-2-1.2-.4-.5-.7-1.1-.7-1.7s.3-1.5.8-2c.6-.5,1.4-.7,2.4-.7s1.4.2,1.8.5c.5.3.9.8,1.2,1.4l-1.4.8c-.2-.4-.4-.7-.7-.9-.3-.2-.6-.3-1-.3s-.8.1-1.1.3c-.3.2-.4.5-.4.9s.1.7.4.9c.3.3.8.5,1.5.7,1.1.3,1.9.8,2.3,1.2.5.5.7,1.1.7,1.8Z"/>
        <path class="cls-3" d="M156.8,19.9h-1.6v8.3h-1.7v-8.3h-1.2v-1.5h1.2v-4h1.7v4h1.6v1.5Z"/>
        <path class="cls-3" d="M168.6,28.2h-1.7v-1.6c-.3.6-.8,1.1-1.4,1.4-.6.3-1.3.5-2.1.5-1.4,0-2.5-.5-3.4-1.5-.9-1-1.3-2.3-1.3-3.8s.4-2.7,1.3-3.7c.9-1,2-1.4,3.4-1.4s1.5.2,2.1.5c.6.3,1.1.7,1.4,1.3v-1.5h1.7v9.8ZM166.9,23.1c0-1.1-.3-1.9-.9-2.5-.6-.6-1.4-.9-2.4-.9s-1.8.3-2.4,1c-.6.6-.9,1.5-.9,2.6s.3,2,.9,2.6c.6.7,1.4,1,2.3,1s1.7-.3,2.4-1c.6-.7.9-1.6.9-2.7Z"/>
        <path class="cls-3" d="M180.8,28.2h-1.7v-5.8c0-.9-.2-1.6-.5-2.1-.3-.4-.9-.7-1.6-.7s-1.5.3-1.9,1c-.4.7-.7,1.6-.7,2.9v4.7h-1.7v-9.8h1.7v1.4c.3-.6.7-1,1.2-1.3.5-.3,1.2-.4,1.9-.4s1.8.3,2.4,1c.6.7.9,1.6.9,2.8v6.3Z"/>
        <path class="cls-3" d="M192.4,27.8c-.4.2-.9.4-1.4.5-.5.1-1.1.2-1.7.2-1.6,0-2.8-.5-3.8-1.4-1-1-1.5-2.2-1.5-3.7s.5-2.8,1.5-3.8,2.3-1.5,4-1.5,1.1,0,1.5.2c.5.1.9.3,1.3.5v1.8c-.4-.3-.8-.5-1.3-.6-.5-.2-1-.2-1.4-.2-1.2,0-2.1.3-2.8,1-.7.7-1.1,1.6-1.1,2.7s.4,1.9,1.1,2.5c.7.6,1.6,1,2.8,1s1.1,0,1.6-.2c.5-.2.9-.4,1.3-.7v1.8Z"/>
        <path class="cls-3" d="M204.5,23.5h-7.9c0,1.1.4,1.9.9,2.5.6.6,1.3.9,2.3.9s1.3-.1,1.8-.4c.5-.3.9-.7,1.2-1.3l1.4.7c-.5.9-1,1.5-1.8,1.9-.7.4-1.6.7-2.6.7-1.5,0-2.7-.5-3.5-1.4-.9-1-1.3-2.2-1.3-3.8s.5-2.7,1.4-3.7c.9-1,2.1-1.5,3.4-1.5s2.5.4,3.4,1.3c.9.9,1.3,2.1,1.3,3.5v.6ZM202.9,22.3c0-.8-.4-1.5-.9-2-.5-.5-1.2-.7-2.1-.7s-1.5.2-2.1.7c-.6.5-.9,1.1-1,1.9h6.2Z"/>
        <path class="cls-3" d="M77.8,19.1c0,.2,0,.4-.3.6-.2.2-.4.2-.6.2s-.4,0-.6-.2c-.2-.2-.2-.4-.2-.6s0-.4.2-.6c.2-.2.4-.3.6-.3s.4,0,.6.3c.2.2.3.4.3.6Z"/>
        <path class="cls-3" d="M120.3,19.1c0,.2,0,.4-.3.6-.2.2-.4.2-.6.2s-.4,0-.6-.2c-.2-.2-.2-.4-.2-.6s0-.4.2-.6c.2-.2.4-.3.6-.3s.4,0,.6.3c.2.2.3.4.3.6Z"/>
        <path class="cls-3" d="M139.8,19.1c0,.2,0,.4-.3.6-.2.2-.4.2-.6.2s-.4,0-.6-.2c-.2-.2-.2-.4-.2-.6s0-.4.2-.6c.2-.2.4-.3.6-.3s.4,0,.6.3c.2.2.3.4.3.6Z"/>
        <path class="cls-3" d="M76.9,21.2c-.3,0-.6,0-.8-.3v7.3h1.7v-7.3c-.2.2-.5.3-.8.3Z"/>
        <path class="cls-3" d="M119.5,21.2c-.3,0-.6,0-.8-.3v7.3h1.7v-7.3c-.2.2-.5.3-.8.3Z"/>
        <path class="cls-3" d="M139,21.2c-.3,0-.6,0-.8-.3v7.3h1.7v-7.3c-.2.2-.5.3-.8.3Z"/>
      </g>
      <text class="cls-1" transform="translate(211 19)"><tspan x="0" y="0">R</tspan></text>
      <circle class="cls-9" cx="213.5" cy="16" r="5"/>
    </g>
  </g>
</svg>